<?xml version="1.0" encoding="UTF-8"?>
<svg width="282.22mm" height="255.19mm" version="1.1" viewBox="0 0 1000 904.22833" xmlns="http://www.w3.org/2000/svg">
 <defs>
  <filter id="n" x="-.24337" y="-.846" width="1.4867" height="2.692" color-interpolation-filters="sRGB">
   <feGaussianBlur stdDeviation="7.9312501"/>
  </filter>
  <linearGradient id="u" x1="426.13" x2="422.85" y1="665.16" y2="729.44" gradientTransform="matrix(.95964 0 0 .95964 16.6 24.8)" gradientUnits="userSpaceOnUse">
   <stop stop-color="#ea2e25" offset="0"/>
   <stop stop-color="#ea2e25" stop-opacity="0" offset="1"/>
  </linearGradient>
  <filter id="o" x="-.088707" y="-.12684" width="1.1774" height="1.2537" color-interpolation-filters="sRGB">
   <feGaussianBlur stdDeviation="10.043122"/>
  </filter>
  <filter id="p" x="-.23436" y="-.071184" width="1.4687" height="1.1424" color-interpolation-filters="sRGB">
   <feGaussianBlur stdDeviation="4.2093358"/>
  </filter>
  <filter id="q" x="-.38924" y="-.80901" width="1.7785" height="2.618" color-interpolation-filters="sRGB">
   <feGaussianBlur stdDeviation="6.1398214"/>
  </filter>
  <filter id="r" x="-1.1847" y="-.51467" width="3.3694" height="2.0293" color-interpolation-filters="sRGB">
   <feGaussianBlur stdDeviation="14.294185"/>
  </filter>
  <filter id="s" x="-.96396" y="-.52904" width="2.9279" height="2.0581" color-interpolation-filters="sRGB">
   <feGaussianBlur stdDeviation="10.859028"/>
  </filter>
  <filter id="t" x="-.24703" y="-.3189" width="1.4941" height="1.6378" color-interpolation-filters="sRGB">
   <feGaussianBlur stdDeviation="10.859028"/>
  </filter>
  <linearGradient id="v" x1="411.51" x2="411.16" y1="527.09" y2="566.74" gradientUnits="userSpaceOnUse">
   <stop stop-color="#8e2b23" offset="0"/>
   <stop stop-color="#8e2b23" stop-opacity="0" offset="1"/>
  </linearGradient>
  <linearGradient id="w" x1="383.85" x2="386.08" y1="479.47" y2="524.93" gradientUnits="userSpaceOnUse">
   <stop stop-color="#a0b85f" offset="0"/>
   <stop stop-color="#43432c" offset="1"/>
  </linearGradient>
  <linearGradient id="x" x1="383.61" x2="386.87" y1="471.36" y2="513.29" gradientUnits="userSpaceOnUse">
   <stop stop-color="#9bb26d" offset="0"/>
   <stop stop-color="#9bb26d" stop-opacity="0" offset="1"/>
  </linearGradient>
  <linearGradient id="y" x1="419.18" x2="426.98" y1="485.38" y2="501.58" gradientUnits="userSpaceOnUse">
   <stop stop-color="#262e1c" offset="0"/>
   <stop stop-color="#546534" stop-opacity=".41573" offset="1"/>
  </linearGradient>
  <linearGradient id="z" x1="343.59" x2="371.34" y1="541.2" y2="528.35" gradientUnits="userSpaceOnUse">
   <stop stop-color="#546534" offset="0"/>
   <stop stop-color="#ae9862" offset="1"/>
  </linearGradient>
 </defs>
 <g transform="translate(-258.39 157.15)">
  <g transform="matrix(3.2703 0 0 3.2703 -586.61 -1696.1)">
   <path d="m318.2 534.66c-30.612 17.917-48.906 48.882-48.487 95.459 0.3412 37.938 20.145 69.447 53.538 91.419 46.112 30.341 99.72 33.352 151.52 10.607 38.137-16.745 72.348-45.169 77.277-101.52 4.0006-45.745-5.2846-91.822-65.66-111.12-22.478-7.1837-49.049-3.4227-76.267 0.25253-34.415-6.3542-65.22-0.72999-91.924 14.9z" fill="#b91f27"/>
   <path transform="matrix(.9558 0 0 .9558 18.18 27.161)" d="m453.07 519.44c-13.711 0.15202-28.207 2.162-42.899 4.1459-33.026-6.0978-62.587-0.70179-88.214 14.297-29.376 17.194-46.931 46.91-46.529 91.608 0.19648 21.847 7.1268 41.468 19.556 58.227a212.62 122.63 0 0 0 120.42 21.746 212.62 122.63 0 0 0 105.76 -16.436c13.415-15.599 22.838-35.963 25.207-63.053 3.8391-43.898-5.0715-88.116-63.01-106.63-9.4373-3.016-19.627-4.0205-30.29-3.9023z" fill="url(#u)" filter="url(#o)"/>
   <path d="m316.85 538.04c-27.356 18.323-43.493 48.306-43.1 92.082 0.16377 18.209 4.8034 34.941 13.298 49.837-13.298-49.837-3.8782-106.39 29.802-141.92z" fill="#fff" filter="url(#p)" opacity=".453"/>
   <path d="m472.5 586.23a22.425 40.861 0 0 0 -21.828 31.668 16.415 34.598 0 0 0 -15.547 -23.637 16.415 34.598 0 0 0 -16.414 34.598 16.415 34.598 0 0 0 16.414 34.598 16.415 34.598 0 0 0 15.793 -25.295 22.425 40.861 0 0 0 21.582 29.791 22.425 40.861 0 0 0 21.049 -26.912 17.114 24.943 0 0 0 13.549 9.7305 17.114 24.943 0 0 0 17.115 -24.941 17.114 24.943 0 0 0 -17.115 -24.943 17.114 24.943 0 0 0 -13.924 10.473 22.425 40.861 0 0 0 -20.674 -25.129z" fill="#fff" filter="url(#t)" opacity=".453"/>
   <ellipse cx="472.5" cy="627.09" rx="13.518" ry="24.631" fill="#fff" filter="url(#s)" opacity=".688"/>
   <ellipse cx="373.04" cy="558.97" rx="39.107" ry="11.25" fill="#ffffba" filter="url(#n)" opacity=".525"/>
   <ellipse cx="460.36" cy="559.68" rx="18.929" ry="9.1071" fill="#fff" filter="url(#q)" opacity=".351"/>
   <path d="m393.93 528.26c-0.78021-3.7584-39.875-1.7176-49.107 2.1429 11.246 0.54114 23.838-0.71296 31.071 5.1786-14.373 1.5316-15.612 12.867-17.321 19.643 3.3333-2.7862 6.6667-5.8543 10-8.2143-1.8558 6.4342 4.3033 17.677 9.2857 28.214 3.4503-15.193 4.5482-29.766 25-30.714 15.141 2.1719 30.82 0.91702 45.357-3.9286-1.759-1.382 24.902 2.0012 32.5 9.6429-2.9659-6.6075-28.121-16.945-32.857-13.393 0.95279-7.559 4.4491-11.727 8.2143-15.536-10.101 0.71925-19.413 4.1978-28.571 8.2143-12.567-3.4972-24.825-7.6114-38.75-8.3929 2.8959 1.8797 5.5574 3.8598 5.1786 7.1429z" fill="url(#v)"/>
   <path d="m518.21 487.9c-7.973 8.4851-5.9966 20.205-16.607 25.536-18.232 9.1596-40.306 17.489-55.179 27.143-21.937 6.704-43.595 1.6016-66.052 0.77536-5.9026-0.21718-10.09 0.33992-10.463-5.1913-0.29401-4.3706-2.1375-2.9115-4.9136-6.1198l8.2143-0.89286c-19.813-11.212-27.504-21.127-40.939-37.427-2.0856-2.5304-1.4245-2.6685 0.85086-4.1143 5.6846-3.6122 11.369-7.6866 17.053-11.494l-16.429 13.393c20.754 20.288 37.25 30.219 62.565 39.782 1.107-14.248-28.363-25.646-12.208-58.71-7.6142 33.426 23.899 34.862 38.036 59.821 6.1176-8.5979 25.018-38.375 50.357-44.286-24.853 7.2026-28.634 26.863-31.964 39.643 8.9514-3.1548 8.197-6.3095 8.75-9.4643 2.101 3.3076 2.6148 6.6392-0.42586 11.703 15.142-3.9048 38.161-7.6478 52.747-17.238 10.399-6.8378 8.202-14.303 16.607-22.857z" fill="url(#w)"/>
   <path d="m343.07 541.48c13.594-2.0937 24.287-6.2823 31.82-12.753l-10.48-1.0102c-2.2902 4.0519-13.629 9.1092-21.339 13.763z" fill="url(#z)"/>
   <path d="m350.18 476.11c-0.76575 0.51294-1.5311 1.0475-2.2969 1.5684l-15.162 11.648c11.525 17.98 25.222 27.359 42.553 39.145 7.1189-0.51722 14.057-0.0393 21.088 0.88281l-0.0449-0.0742c-1.5e-4 2e-3 1.6e-4 4e-3 0 6e-3 -25.315-9.5627-41.81-19.493-62.564-39.781l16.428-13.395z" fill="#62753c"/>
   <path d="m518.21 487.9c-8.4052 8.5543-6.2082 16.02-16.607 22.857-14.338 9.4276-36.786 13.204-51.93 17.039l-0.0332 0.0449c-0.20508 0.0329-0.4043 0.0754-0.60742 0.11133-0.0561 0.0144-0.12184 0.0286-0.17773 0.043 2e-3 -4e-3 5e-3 -8e-3 8e-3 -0.0117-8.7032 1.5793-16.331 5.9816-27.254 5.4134 0.0805 1.783 1.284 5.7534-1.7676 8.7136 25.702-8.7259 79.963-24.992 87.42-34.895 4.4523-5.9119 4.3862-11.353 9.3164-17.334 0.499-0.67469 1.0297-1.3406 1.6328-1.9824z" fill="#62753c"/>
   <path d="m384.11 470.58c-8.8888 18.193-3.963 29.821 2.0801 38.979 6.988 3.2865 13.462 4.7289 22.203 5.0254-14.27-12.098-29.893-19.378-24.283-44.004z" fill="url(#x)"/>
   <path d="m420.98 542.11c10.284-16.563-8.5541-19.87 10.859-54.675-2.8318-4.1975-4.8821-3.6378-9.3439-2.9042-10.02 8.5673-22.04 34.768-20.077 46.341 7.0136 1.8606 10.425 6.1671 15.026 11.364z" fill="#546534"/>
   <path d="m426.67 484.02c-0.35197-5e-3 -0.7254 0.0213-1.1133 0.0586-0.13043 0.0125-0.26714 0.0286-0.40234 0.0449-0.24433 0.0294-0.49824 0.0642-0.75977 0.10351-0.59104 0.0885-1.198 0.18821-1.8945 0.30274-0.37845 0.32357-0.76128 0.68256-1.1445 1.0547-0.13824 0.13423-0.27729 0.27383-0.41601 0.41407-0.26892 0.27187-0.53835 0.55604-0.8086 0.84961-0.13106 0.14235-0.2613 0.28048-0.39257 0.42773-0.37272 0.41813-0.74577 0.85312-1.1192 1.3086-0.56265 0.68617-1.1237 1.4215-1.6836 2.1836-0.15976 0.21758-0.31926 0.4428-0.47852 0.66601-0.42959 0.60187-0.85695 1.2238-1.2812 1.8633-0.15284 0.23049-0.30706 0.45449-0.45899 0.68945-0.52974 0.81877-1.0526 1.6644-1.5684 2.5312-0.1579 0.26556-0.31245 0.53911-0.46875 0.80859-0.37697 0.64954-0.74895 1.3089-1.1152 1.9785-0.18238 0.33363-0.36555 0.66602-0.54493 1.0039-0.46299 0.87157-0.91726 1.7542-1.3574 2.6484-5e-3 0.01-9e-3 0.0196-0.0137 0.0293-0.1573 0.32006-0.30692 0.64456-0.46094 0.96679-0.31263 0.65363-0.61804 1.3105-0.91601 1.9707-0.18632 0.41315-0.37069 0.82745-0.55078 1.2422-0.28873 0.66449-0.56645 1.3301-0.83789 1.9961-0.22058 0.54156-0.43631 1.0804-0.64453 1.6211-0.25517 0.66218-0.50112 1.3225-0.73633 1.9805-0.16158 0.45223-0.3172 0.90255-0.46875 1.3516-0.18562 0.54981-0.35958 1.0954-0.5293 1.6387-0.1297 0.41523-0.26676 0.83366-0.38672 1.2441 8.9965-16.242 9.8018-4.2962 18.662-4.6094 0.62299-6.1183 2.9338-13.964 9.0644-24.955-0.20447-0.30309-0.40402-0.57487-0.60156-0.83007-0.0564-0.0729-0.112-0.13789-0.16797-0.20704-0.13925-0.17204-0.27888-0.33451-0.41601-0.48437-0.0653-0.0714-0.13035-0.1405-0.19532-0.20703-0.13136-0.13457-0.26201-0.25737-0.39257-0.37305-0.0639-0.0566-0.12755-0.11763-0.19141-0.16992-0.15681-0.12843-0.31328-0.24204-0.4707-0.3457-0.0534-0.0352-0.10658-0.0711-0.16016-0.10352-0.17026-0.10319-0.34252-0.19401-0.51562-0.27148-0.0509-0.0228-0.10308-0.0399-0.1543-0.0606-0.14242-0.0575-0.28597-0.10811-0.43164-0.15039-0.0687-0.0199-0.13749-0.0399-0.20703-0.0566-0.14384-0.0347-0.28931-0.062-0.4375-0.084-0.0624-9e-3 -0.1242-0.0202-0.1875-0.0273-0.20979-0.0238-0.42359-0.04-0.64453-0.043z" fill="url(#y)"/>
   <path d="m376.07 593.76a19.358 33.328 0 0 0 -19.357 33.328 19.358 33.328 0 0 0 19.357 33.328 19.358 33.328 0 0 0 9.5996 -4.4336 23.231 40.199 0 0 1 -7.1172 -28.895 23.231 40.199 0 0 1 7.1035 -28.926 19.358 33.328 0 0 0 -9.5859 -4.4023z" fill="#ffff7e" filter="url(#r)" opacity=".681"/>
   <path d="m422.37 485.41c2.4065 3.3192 6.1732 3.845 8.46 2.9042-3.7925 0.34338-5.4964-1.6156-8.46-2.9042z" fill="#889a59"/>
  </g>
 </g>
</svg>
